HIERARCHY
ROOT ui
{
	 OFFSET 0 0 0
	 CHANNELS 3 XPosition YPosition Z Position
	 EndSite
	 {
	 OFFSET 0 -1 0
	 }
}
ROOT li
{
	 OFFSET 0 0 0
	 CHANNELS 3 XPosition YPosition Z Position
	 EndSite
	 {
	 OFFSET 0 -1 0
	 }
}
ROOT ul
{
	 OFFSET 0 0 0
	 CHANNELS 3 XPosition YPosition Z Position
	 EndSite
	 {
	 OFFSET 0 -1 0
	 }
}
ROOT ll
{
	 OFFSET 0 0 0
	 CHANNELS 3 XPosition YPosition Z Position
	 EndSite
	 {
	 OFFSET 0 -1 0
	 }
}
ROOT tt
{
	 OFFSET 0 0 0
	 CHANNELS 3 XPosition YPosition Z Position
	 EndSite
	 {
	 OFFSET 0 -1 0
	 }
}
ROOT tb
{
	 OFFSET 0 0 0
	 CHANNELS 3 XPosition YPosition Z Position
	 EndSite
	 {
	 OFFSET 0 -1 0
	 }
}
ROOT td
{
	 OFFSET 0 0 0
	 CHANNELS 3 XPosition YPosition Z Position
	 EndSite
	 {
	 OFFSET 0 -1 0
	 }
}
ROOT v
{
	 OFFSET 0 0 0
	 CHANNELS 3 XPosition YPosition Z Position
	 EndSite
	 {
	 OFFSET 0 -1 0
	 }
}
ROOT bn
{
	 OFFSET 0 0 0
	 CHANNELS 3 XPosition YPosition Z Position
	 EndSite
	 {
	 OFFSET 0 -1 0
	 }
}
MOTION
Frames: 32
Frame Time: 0.002
-0.004762455940246582	-5.207780003547668E-4	0		0.4288495178222656	-2.39330517578125	0		-1.1288580322265624	-0.006935603141784668	0		-0.65450732421875	-2.6650771484375	0		2.664773681640625	-0.06628688812255859	0		4.052848876953125	0.05388106155395508	0		5.34648876953125	-0.11115608215332032	0		6.03616845703125	0.5519869995117187	0		-0.3000617980957031	5.82920947265625	0		
-0.004538362979888916	-5.885660052299499E-4	0		0.4540150146484375	-2.397590576171875	0		-1.130565673828125	0.0010244519710540772	0		-0.644557373046875	-2.694222900390625	0		2.64398095703125	-0.06820159149169921	0		4.0342109375	0.06993496704101562	0		5.34079736328125	-0.10122566986083985	0		6.03626123046875	0.5358603515625	0		-0.283695556640625	5.83900732421875	0		
-0.004307701110839844	-6.610410213470459E-4	0		0.43818414306640624	-2.401531494140625	0		-1.1263009033203124	0.004930749893188476	0		-0.6893992309570313	-2.698903076171875	0		2.626237060546875	-0.0651511459350586	0		4.04747607421875	0.07370417785644531	0		5.3201728515625	-0.08418150329589844	0		6.03763525390625	0.5517083740234375	0		-0.28240548706054686	5.8379296875	0		
-4.1652001440525054E-5	0.0032270069122314455	0		0.46738299560546875	-2.40186328125	0		-1.13294873046875	0.01892758560180664	0		-0.6544271850585938	-2.72527001953125	0		2.59546923828125	-0.06499837493896485	0		4.03108642578125	0.11771649932861328	0		5.3204208984375	-0.08233017730712891	0		6.03687451171875	0.5515587768554687	0		-0.28407843017578127	5.839873046875	0		
-0.003846975088119507	-8.21714997291565E-4	0		0.4345429077148438	-2.405670166015625	0		-1.1496676025390624	0.025006868362426757	0		-0.6614702758789063	-2.752282470703125	0		2.60565380859375	-0.07020579528808593	0		4.00627490234375	0.1127878875732422	0		5.2998037109375	-0.06431314086914063	0		6.02911181640625	0.5514542846679688	0		-0.2506952667236328	5.8475107421875	0		
-0.003625179052352905	-9.110559821128845E-4	0		0.4576558532714844	-2.413964111328125	0		-1.1554022216796875	0.029987606048583984	0		-0.6784474487304688	-2.77021435546875	0		2.548005615234375	-0.05483987808227539	0		3.999748046875	0.14169216918945313	0		5.2851279296875	-0.05236059188842773	0		6.03327392578125	0.5432323608398437	0		-0.29951370239257813	5.83184716796875	0		
-0.0034134650230407716	-0.0010073260068893433	0		0.4377568359375	-2.42189599609375	0		-1.1511556396484375	0.0338770751953125	0		-0.6804739990234375	-2.79228076171875	0		2.543966796875	-0.08394567108154297	0		3.98607470703125	0.15464530944824217	0		5.27533935546875	-0.05246411514282227	0		6.02942626953125	0.5350642700195313	0		-0.2851134338378906	5.841634765625	0		
-0.003214087963104248	-0.0011110639572143555	0		0.4379106140136719	-2.422008056640625	0		-1.16571337890625	0.06192335510253906	0		-0.6825255737304687	-2.815353515625	0		2.502114501953125	-0.08973471069335938	0		3.96758837890625	0.19062907409667967	0		5.26875341796875	-0.02760778045654297	0		6.04677294921875	0.5506996459960938	0		-0.28479537963867185	5.84253662109375	0		
0.0010059419870376586	0.00274263596534729	0		0.43804833984375	-2.422128173828125	0		-1.1605008544921875	0.06479141998291016	0		-0.6225708618164062	-2.835969970703125	0		2.495263916015625	-0.0938350830078125	0		3.9547783203125	0.1905514678955078	0		5.248103515625	-0.008642607688903809	0		6.03797021484375	0.5505463256835937	0		-0.2524263000488281	5.8501533203125	0		
-0.0028576250076293944	-0.0013422969579696656	0		0.4669952392578125	-2.442507568359375	0		-1.17727587890625	0.07084256744384766	0		-0.6745773315429687	-2.84962548828125	0		2.46329541015625	-0.1097278060913086	0		3.945144287109375	0.2124367370605469	0		5.23321435546875	-0.01573934268951416	0		6.0340830078125	0.542338134765625	0		-0.253118408203125	5.85204736328125	0		
-0.0027019670009613035	-0.0014704879522323608	0		0.43608343505859376	-2.444376220703125	0		-1.14207666015625	0.07543465423583984	0		-0.643743408203125	-2.880008056640625	0		2.453379638671875	-0.11782054901123047	0		3.893375732421875	0.22067730712890626	0		5.21252685546875	0.002204387903213501	0		6.03425	0.542083251953125	0		-0.25383116149902346	5.85293310546875	0		
-0.0025615899562835692	-0.0016074789762496949	0		0.4321277160644531	-2.449487548828125	0		-1.1888892822265624	0.08073153686523438	0		-0.6448567504882813	-2.90212158203125	0		2.425422607421875	-0.12876614379882811	0		3.866661376953125	0.23669091796875	0		5.18674658203125	0.011181100845336914	0		6.03440234375	0.5418160400390625	0		-0.2876155090332031	5.84709814453125	0		
0.0015987869501113891	0.0022115941047668457	0		0.44112860107421875	-2.457721435546875	0		-1.1856483154296875	0.09358541107177734	0		-0.6449703979492187	-2.92225244140625	0		2.398459228515625	-0.13872981262207032	0		3.86278369140625	0.23549392700195312	0		5.16587353515625	0.011103181838989258	0		6.04353955078125	0.5414572143554688	0		-0.2863684997558594	5.84594970703125	0		
0.0017105040550231933	0.002056869983673096	0		0.4411837158203125	-2.45788623046875	0		-1.1873856201171875	0.11047486877441406	0		-0.6560219116210938	-2.93329541015625	0		2.370472412109375	-0.14969404602050781	0		3.84015576171875	0.26445068359375	0		5.15022265625	0.03796870803833008	0		6.03873388671875	0.5492069091796875	0		-0.27300894165039064	5.8586875	0		
0.0018089989423751831	0.0018931519985198974	0		0.43314520263671874	-2.46698974609375	0		-1.13230419921875	0.10785642242431641	0		-0.6351781616210938	-2.954627197265625	0		2.329322998046875	-0.17755276489257812	0		3.77116650390625	0.2538023529052734	0		5.12541943359375	0.04890212249755859	0		6.034775390625	0.5409356079101563	0		-0.2898500671386719	5.8496796875	0		
-0.0021403560638427735	-0.002244765043258667	0		0.42710983276367187	-2.474120361328125	0		-1.178170166015625	0.11311540222167969	0		-0.686267578125	-2.96633544921875	0		2.2992822265625	-0.19151760864257814	0		3.771434326171875	0.27353717041015624	0		5.09858642578125	0.05784238815307617	0		6.0348740234375	0.5406165161132812	0		-0.254571533203125	5.855205078125	0		
-0.00206722092628479	-0.0024282848834991455	0		0.443954345703125	-2.4934638671875	0		-1.1749884033203124	0.12493356323242187	0		-0.6504888305664063	-2.9918193359375	0		2.243132080078125	-0.21626171875	0		3.736586181640625	0.28157049560546876	0		5.07274169921875	0.06676388549804688	0		6.02696044921875	0.5403566284179687	0		-0.2894073791503906	5.8493369140625	0		
-0.0020060410499572754	-0.0026226229667663573	0		0.38698416137695313	-2.490164306640625	0		-1.1758443603515625	0.1337760467529297	0		-0.6935335083007812	-2.995616943359375	0		2.2260029296875	-0.2373589324951172	0		3.718779052734375	0.2954447021484375	0		5.04501806640625	0.09069398498535156	0		6.02703466796875	0.5400166625976562	0		-0.27410809326171875	5.8600166015625	0		
0.002079457998275757	0.0011365439891815187	0		0.4399117126464844	-2.497848876953125	0		-1.1426768798828124	0.14630494689941406	0		-0.6646524047851563	-3.00706298828125	0		2.20490625	-0.25342929077148435	0		3.678731201171875	0.28350784301757814	0		5.0300087890625	0.08350386047363281	0		6.02709765625	0.5396701049804687	0		-0.2588233642578125	5.87068408203125	0		
0.002119765043258667	9.208019971847535E-4	0		0.40685330200195313	-2.502780517578125	0		-1.1536240234375	0.14721250915527342	0		-0.676794189453125	-3.02015673828125	0		2.175737548828125	-0.27643499755859374	0		3.67007177734375	0.3162891540527344	0		5.0022744140625	0.108424560546875	0		6.03514990234375	0.5392492065429687	0		-0.2197431182861328	5.86012744140625	0		
-0.0018844139575958253	-0.003269150972366333	0		0.43076983642578126	-2.510228271484375	0		-1.0795479736328124	0.15135014343261718	0		-0.6849048461914062	-3.029296875	0		2.136630859375	-0.29135693359375	0		3.62701318359375	0.3053720703125	0		4.98132666015625	0.11028334808349609	0		6.0302724609375	0.5479437866210938	0		-0.2785356140136719	5.86643212890625	0		
-0.001861292004585266	-0.003504349946975708	0		0.4086580200195313	-2.5202744140625	0		-1.1604383544921875	0.16085859680175782	0		-0.6820987548828125	-3.04754541015625	0		2.108444091796875	-0.3143805236816406	0		3.582159912109375	0.3184714050292969	0		4.95341552734375	0.11720588684082031	0		6.022154296875	0.5306690673828125	0		-0.24435150146484375	5.87189794921875	0		
-0.0018453350067138671	-0.0037479538917541506	0		0.44553302001953127	-2.531855712890625	0		-1.1613480224609376	0.16864247131347657	0		-0.7112117919921875	-3.056517822265625	0		2.090249755859375	-0.33749636840820313	0		3.587127197265625	0.3121249389648437	0		4.92551513671875	0.12613201141357422	0		6.0311787109375	0.530246826171875	0		-0.25825726318359377	5.86978369140625	0		
0.009262879371643067	0.006902664184570312	0		0.3915729064941406	-2.524628173828125	0		-1.0722674560546874	0.17560972595214844	0		-0.6512376098632813	-3.05629638671875	0		2.074076416015625	-0.35763134765625	0		3.542430419921875	0.3442271728515625	0		4.906734375	0.14898283386230468	0		6.035267578125	0.5378766479492187	0		-0.2300413360595703	5.88328515625	0		
0.0022053709030151365	-2.8935199975967406E-4	0		0.43942138671875	-2.539318115234375	0		-1.09324169921875	0.177555419921875	0		-0.68440087890625	-3.0712470703125	0		2.018864013671875	-0.38141522216796875	0		3.49924365234375	0.32231869506835936	0		4.8706884765625	0.1429952850341797	0		6.02727880859375	0.53762451171875	0		-0.26501263427734373	5.87834765625	0		
0.0022053160667419433	-5.475850105285644E-4	0		0.3783829040527344	-2.541031982421875	0		-1.1041588134765625	0.1864055938720703	0		-0.6555197143554687	-3.081759521484375	0		2.0356351318359374	-0.40684344482421875	0		3.476355224609375	0.3342351684570313	0		4.84783447265625	0.15889923095703126	0		6.0222119140625	0.529357177734375	0		-0.24500538635253907	5.872912109375	0		
-0.005791262149810791	2.642340064048767E-4	0		0.40432281494140626	-2.5455283203125	0		-1.1041634521484376	0.1861529541015625	0		-0.7295074462890625	-3.077349609375	0		1.9514229736328126	-0.42936068725585935	0		3.46419921875	0.31706024169921876	0		4.82282177734375	0.15783132934570313	0		6.02728173828125	0.5370111083984375	0		-0.2659167785644531	5.87884228515625	0		
-0.002776995897293091	0.002976330041885376	0		0.39516375732421877	-2.560709228515625	0		-1.1001392822265625	0.18986109924316405	0		-0.6796263427734375	-3.088056640625	0		1.938264892578125	-0.44551287841796877	0		3.442368896484375	0.3369805908203125	0		4.804017578125	0.18071826171875	0		6.027271484375	0.5367223510742187	0		-0.26590216064453126	5.87858251953125	0		
0.0021670880317687987	-0.0013290129899978637	0		0.37629119873046873	-2.543800537109375	0		-1.1010775146484375	0.19861212158203126	0		-0.7166256103515625	-3.084982421875	0		1.926109375	-0.4606697692871094	0		3.411189208984375	0.31899093627929687	0		4.77999951171875	0.18066130065917968	0		6.0272529296875	0.5364461059570312	0		-0.26590652465820314	5.87832275390625	0		
-0.002823364019393921	0.0024564380645751955	0		0.3801277160644531	-2.559095458984375	0		-1.1110946044921874	0.19944338989257812	0		-0.693619140625	-3.081448486328125	0		1.9087860107421875	-0.49377597045898436	0		3.4022802734375	0.3318099365234375	0		4.76897314453125	0.18049797058105468	0		6.0180830078125	0.5202646484375	0		-0.23186788940429687	5.88475732421875	0		
0.002107120990753174	-0.0018461480140686034	0		0.37807989501953126	-2.561334716796875	0		-1.1220467529296876	0.20828285217285156	0		-0.729619873046875	-3.07838330078125	0		1.8596292724609376	-0.5075894775390625	0		3.34314990234375	0.32108831787109376	0		4.7491474609375	0.2034257049560547	0		6.02719287109375	0.5359332275390625	0		-0.23289996337890626	5.88550830078125	0		
-0.005923007965087891	-0.0010297139883041382	0		0.3839311828613281	-2.574642578125	0		-1.1220867919921875	0.20802381896972658	0		-0.6916602783203125	-3.07998291015625	0		1.8464569091796874	-0.5227216186523438	0		3.3271279296875	0.3229871520996094	0		4.73102734375	0.19434735107421874	0		6.022080078125	0.5277418212890626	0		-0.26701040649414065	5.87955810546875	0		
